<svg xmlns="http://www.w3.org/2000/svg" xmlns:xlink="http://www.w3.org/1999/xlink" version="1.1" x="0px" y="0px" viewBox="0 0 60 61.25" enable-background="new 0 0 60 49" xml:space="preserve"><path d="M57.49,16H54V9.73C54,8.23,52.77,7,51.27,7H26.51l-5-7H2.73C1.23,0,0,1.23,0,2.73v43.69l0.01,0c0,0.56,0.17,1.11,0.52,1.57  C1.02,48.63,1.76,49,2.57,49h44.76c1.16,0,2.17-0.78,2.45-1.81L60,19.15v-0.18C60,17.25,58.94,16,57.49,16z M2,2.73  C2,2.33,2.33,2,2.73,2h17.75l5,7h25.78C51.67,9,52,9.33,52,9.73V16H12.73c-0.14,0-0.29,0.01-0.43,0.04  c-0.97,0.16-1.78,0.87-2.02,1.78L2,40.4V2.73z M47.87,46.58C47.8,46.83,47.58,47,47.32,47H2.57c-0.24,0-0.39-0.14-0.45-0.22  c-0.06-0.08-0.16-0.26-0.12-0.41l10.19-27.95c0.07-0.25,0.29-0.42,0.54-0.42H54h3.49c0.38,0,0.48,0.55,0.5,0.82L47.87,46.58z"/></svg>